<svg xmlns="http://www.w3.org/2000/svg" version="1.0" viewBox="0 0 1280 1280"><path d="M620.3 111.4c-26.6 5.1-40.1 16.6-42.8 36.5l-.7 5.3-3.7-.6c-24.1-4.1-40.5-2.6-57.6 5.4-11 5.1-18.7 11-39.3 30.2-21.2 19.8-23 21.4-30.6 26.7-8.1 5.6-12.7 5.4-11.2-.5.5-1.9 2.1-3.2 5.9-4.9 7.3-3.2 8.1-4.4 7.4-11.1-1.4-13.9-12.1-21.8-29.2-21.6-9.8.1-18.9 3.2-26.7 9-9.1 6.8-21.9 20-25 25.7-2.6 4.9-5.9 16.5-7.3 25.5-1.8 11.2-10.3 22.2-24.5 31.6-4.1 2.8-14.5 8.8-23 13.4-107.6 58-186.2 140.9-224.8 237-13.4 33.4-22.4 71.7-25.3 107.4-1.4 18.4-.7 53.2 1.5 70.6 3.6 27.8 11.8 60.3 21.7 86.5 6.9 18.2 24.1 52.5 34.9 69.3 45.2 70.9 111.4 130.2 195.7 175 32.2 17.2 40.3 25.9 44.9 48.3 3.8 18.9 7.6 25.2 23.7 39.5 9.3 8.4 14.9 11.7 23.2 13.9 22 5.7 40.5-4.6 40.5-22.6 0-4-2.8-7.3-7.2-8.4-6.1-1.5-9.2-8.6-4-9.3 4.8-.7 13.5 6.1 42.6 33.1 31.6 29.4 45.2 35.6 75.5 34.3 8-.3 16.2-.9 18.1-1.2l3.5-.6 1.7 8.3c3.5 17 14 26.2 36.3 32 7.7 2 11.4 2.3 25.5 2.3s17.8-.3 25.5-2.3c22.3-5.8 32.8-15 36.3-32l1.7-8.3 3.5.6c1.9.3 10.1.9 18.1 1.2 30.3 1.3 43.9-4.9 75.5-34.3 29.1-27 37.8-33.8 42.6-33.1 5.2.7 2.1 7.8-4 9.3-6.6 1.6-8.6 6.9-6.1 16 1.7 5.9 9 12.9 15.8 14.9 10.4 3.1 24.1 1.5 34-4 5.5-3 19.4-15.2 25.1-22 6-7.2 8.6-13.5 11.4-27.3 4.6-22.4 12.7-31.1 44.9-48.3 51.2-27.3 95-59.2 132.7-96.8 34.9-34.9 61.1-70.8 82-112.5 16.2-32.2 26-60.1 32.9-94 4.5-22.1 6.2-37.5 6.8-61.6 1.5-59.4-10.7-114.8-37.8-170.5-40.7-83.9-115.7-158-212.9-210.4-8.5-4.6-18.9-10.6-23-13.4-14.2-9.4-22.7-20.4-24.5-31.6-1.4-9-4.7-20.6-7.3-25.5-3.1-5.7-15.9-18.9-25-25.7-7.8-5.8-16.9-8.9-26.7-9-17.1-.2-27.8 7.7-29.2 21.6-.7 6.7.1 7.9 7.4 11.1 3.8 1.7 5.4 3 5.9 4.9 1.5 5.9-3.1 6.1-11.2.5-7.6-5.3-9.4-6.9-30.6-26.7-20.6-19.2-28.3-25.1-39.3-30.2-17.1-8-33.5-9.5-57.6-5.4l-3.7.6-.7-5.3c-2.5-18.1-13.9-29.2-36-35-10.3-2.7-35.4-3.5-46.2-1.5zm75 176.1c56.4 4.6 105.6 14.6 156.5 32 154.9 52.8 264.3 161.4 286.6 284.5 6.8 37.3 5.7 77.7-2.9 113.8-19.1 79.9-74.9 153.9-157.7 209.1-72.4 48.2-164 80.5-258.8 91.1-29 3.2-48 4.2-79 4.2-83.8 0-159.2-13.4-232-41.2-69.2-26.4-127.9-63.6-174.5-110.4-40.2-40.4-67.2-83.3-83.3-132.6-19.1-58-17.2-124.5 5.2-183.1 56-146.6 230.8-254.1 436.1-267.9 8.8-.6 19.2-1.2 23-1.4 14.2-.7 62.6.4 80.8 1.9z"/></svg>